<?xml version="1.0" ?><!DOCTYPE svg  PUBLIC '-//W3C//DTD SVG 1.1//EN'  'http://www.w3.org/Graphics/SVG/1.1/DTD/svg11.dtd'><svg enable-background="new 0 0 141.732 141.732" height="141.732px" id="Livello_1" version="1.1" viewBox="0 0 141.732 141.732" width="141.732px" xml:space="preserve" xmlns="http://www.w3.org/2000/svg" xmlns:xlink="http://www.w3.org/1999/xlink"><g id="Livello_23"><path d="M105.109,48.278h-5.152V43.18h5.152V48.278z M97.172,75.288H97.15v-5.391h0.021L97.172,75.288L97.172,75.288z    M94.987,48.278h-5.152V43.18h5.152V48.278z M83.742,48.095H78.59v-5.099h5.152V48.095z M72.958,48.095h-5.151v-5.099h5.151V48.095   z M62.129,48.095h-5.151v-5.099h5.151V48.095z M51.254,48.095h-5.151v-5.099h5.151V48.095z M43.016,75.302h-0.022v-5.403h0.022   V75.302z M40.47,48.095h-5.153v-5.099h5.153V48.095z M140.315,75.288c0-2.977-2.427-5.391-5.421-5.391H115.89   c2.979,0,5.396-2.413,5.396-5.394c0-2.977-2.415-5.391-5.396-5.391h-2.566v-26.77c2.98,0,5.396-2.413,5.396-5.393   c0-2.978-2.414-5.391-5.396-5.391H80.956V5.612V2.735V1.368C80.956,0.612,80.321,0,79.538,0h-1.354h-0.881H63.491h-1.229H60.85   c-0.782,0-1.417,0.612-1.417,1.368v2.607h0.001v17.587H27.008c-2.979,0-5.396,2.413-5.396,5.391c0,2.979,2.415,5.393,5.396,5.393   h0.058v26.771H24.18c-2.979,0-5.396,2.414-5.396,5.391c0,2.979,2.416,5.394,5.396,5.394H5.402C2.418,69.897,0,72.317,0,75.302   l43.004,64.836h0.014h27.021v-0.183H97.15h0.012L140.315,75.288z"/></g><g id="Livello_1_1_"/></svg>