<?xml version="1.0" ?><!DOCTYPE svg  PUBLIC '-//W3C//DTD SVG 1.1//EN'  'http://www.w3.org/Graphics/SVG/1.1/DTD/svg11.dtd'><svg enable-background="new 0 0 141.732 141.732" height="141.732px" id="Livello_1" version="1.1" viewBox="0 0 141.732 141.732" width="141.732px" xml:space="preserve" xmlns="http://www.w3.org/2000/svg" xmlns:xlink="http://www.w3.org/1999/xlink"><g id="Livello_21"><path d="M102.477,62.277h-28.37v-0.102h-5.674v0.102h-28.37V33.906h24.245v-0.035h20.646v0.035h17.521L102.477,62.277   L102.477,62.277z M85.455,25.396c0,1.605-1.271,2.914-2.838,2.914H59.922v-0.002c-0.014,0-0.023,0.002-0.039,0.002   c-1.588,0-2.876-1.287-2.876-2.875c0-1.59,1.288-2.877,2.876-2.877c0.016,0,0.025,0.002,0.039,0.002v-0.08h22.695   C84.186,22.48,85.455,23.785,85.455,25.396 M77.219,16.885H65.596V5.322h11.62L77.219,16.885L77.219,16.885z M62.622,81.779   c0-4.926,3.872-8.92,8.647-8.92c4.773,0,8.646,3.994,8.646,8.92s-3.872,8.92-8.646,8.92C66.494,90.699,62.622,86.705,62.622,81.779    M108.15,99.156v-73.76c0-4.701-3.812-8.512-8.51-8.512h-0.002H82.618V5.322h11.211V0H48.711v5.322h11.484v11.562H42.902H42.9   c-4.7,0-8.51,3.811-8.51,8.512v73.76c0,4.701,3.81,8.512,8.51,8.512h5.6l-18.748,32.469h6.145l18.747-32.472H87.09l18.746,32.472   h6.146l-18.749-32.469h6.408C104.341,107.668,108.15,103.857,108.15,99.156"/></g><g id="Livello_1_1_"/></svg>